<?xml version="1.0"?>
<svg xmlns="http://www.w3.org/2000/svg" xmlns:xlink="http://www.w3.org/1999/xlink" version="1.1" id="Capa_1" x="0px" y="0px" viewBox="0 0 512 512" style="enable-background:new 0 0 512 512;" xml:space="preserve" width="512px" height="512px" class=""><g><g>
	<g>
		<path d="M43.325,240.084c-4.142,0-7.5,3.358-7.5,7.5v10.961c0,4.142,3.358,7.5,7.5,7.5c4.142,0,7.5-3.358,7.5-7.5v-10.961    C50.825,243.442,47.467,240.084,43.325,240.084z" data-original="#000000" class="active-path" data-old_color="#000000" fill="#B8B6B6"/>
	</g>
</g><g>
	<g>
		<path d="M164.451,240.084c-4.142,0-7.5,3.358-7.5,7.5v10.961c0,4.142,3.358,7.5,7.5,7.5c4.142,0,7.5-3.358,7.5-7.5v-10.961    C171.951,243.442,168.593,240.084,164.451,240.084z" data-original="#000000" class="active-path" data-old_color="#000000" fill="#B8B6B6"/>
	</g>
</g><g>
	<g>
		<path d="M123.772,252.136c-3.118-2.726-7.856-2.408-10.583,0.711c-2.249,2.573-5.639,4.049-9.301,4.049    c-3.661,0-7.051-1.476-9.301-4.05c-2.726-3.119-7.464-3.437-10.583-0.71c-3.119,2.727-3.437,7.464-0.711,10.583    c5.099,5.832,12.605,9.177,20.595,9.177s15.496-3.345,20.595-9.177C127.209,259.6,126.891,254.862,123.772,252.136z" data-original="#000000" class="active-path" data-old_color="#000000" fill="#B8B6B6"/>
	</g>
</g><g>
	<g>
		<path d="M483.281,158.055c-18.204-28.338-43.864-51.008-74.207-65.56c-3.735-1.792-8.215-0.215-10.006,3.519    c-1.791,3.735-0.215,8.215,3.52,10.006c27.833,13.349,51.373,34.146,68.073,60.143C487.892,192.988,497,224.05,497,255.99    c0,31.943-9.109,63.006-26.342,89.832c-16.7,25.996-40.24,46.792-68.077,60.141c-3.735,1.791-5.311,6.27-3.52,10.005    c1.764,3.678,6.329,5.283,10.005,3.52c30.347-14.551,56.008-37.221,74.212-65.559C502.068,324.68,512,290.814,512,255.99    C512,221.17,502.069,187.304,483.281,158.055z" data-original="#000000" class="active-path" data-old_color="#000000" fill="#B8B6B6"/>
	</g>
</g><g>
	<g>
		<path d="M437.463,187.487c-12.743-19.837-30.704-35.707-51.938-45.891c-3.734-1.791-8.215-0.215-10.006,3.52    c-1.791,3.734-0.215,8.214,3.52,10.005c18.726,8.981,34.565,22.977,45.804,40.473c11.58,18.028,17.701,38.913,17.701,60.396    c0,21.485-6.122,42.37-17.703,60.398c-11.239,17.496-27.079,31.491-45.807,40.472c-3.735,1.791-5.311,6.271-3.52,10.006    c1.263,2.633,3.98,4.205,6.768,4.232c1.096,0.011,2.203-0.217,3.238-0.713c21.237-10.184,39.198-26.053,51.941-45.89    c13.138-20.451,20.083-44.14,20.083-68.505C457.544,231.626,450.6,207.939,437.463,187.487z" data-original="#000000" class="active-path" data-old_color="#000000" fill="#B8B6B6"/>
	</g>
</g><g>
	<g>
		<path d="M361.974,190.697c-3.735-1.791-8.215-0.216-10.006,3.519c-1.792,3.734-0.216,8.214,3.519,10.006    c19.803,9.498,32.599,29.818,32.599,51.768c0,21.951-12.796,42.271-32.6,51.769c-3.735,1.791-5.311,6.27-3.52,10.005    c1.759,3.667,6.341,5.278,10.006,3.519c24.976-11.978,41.114-37.607,41.114-65.293    C403.086,228.304,386.949,202.676,361.974,190.697z" data-original="#000000" class="active-path" data-old_color="#000000" fill="#B8B6B6"/>
	</g>
</g><g>
	<g>
		<path d="M285.726,85.604l-87.885,63.775H40.959C18.375,149.379,0,167.754,0,190.339v131.303c0,22.584,18.375,40.959,40.959,40.959    h156.882c0,0,87.812,63.722,87.885,63.775c18.397,13.35,45.121-0.282,45.121-23.007c0,0,0-294.368,0-294.758    C330.847,85.92,304.077,72.287,285.726,85.604z M192.776,347.602H40.959C26.646,347.601,15,335.955,15,321.641V190.339    c0-14.314,11.646-25.959,25.959-25.959h151.817V347.602z M315.849,403.371c-0.002,10.707-12.588,17.194-21.312,10.864    l-86.76-62.959V160.703c-0.001,0,86.592-62.837,86.76-62.959c8.722-6.329,21.312,0.102,21.312,10.866    C315.849,108.61,315.849,403.369,315.849,403.371z" data-original="#000000" class="active-path" data-old_color="#000000" fill="#B8B6B6"/>
	</g>
</g></g> </svg>
