<?xml version="1.0"?>
<svg xmlns="http://www.w3.org/2000/svg" id="Capa_1" enable-background="new 0 0 512 512" height="512px" viewBox="0 0 512 512" width="512px" class=""><g><path d="m0 422.26h209.459l-48.779 32.519 16.64 24.961 81.68-54.453 81.68 54.453 16.64-24.961-48.779-32.519h203.459v-60h-512z" data-original="#000000" class="active-path" data-old_color="#000000" fill="#FFFFFF"/><path d="m181.03 152.26-13.33 60h32.6l-13.33-60z" data-original="#000000" class="active-path" data-old_color="#000000" fill="#FFFFFF"/><path d="m319 152.26h-15v90h15c24.81 0 45-20.19 45-45s-20.19-45-45-45z" data-original="#000000" class="active-path" data-old_color="#000000" fill="#FFFFFF"/><path d="m0 32.26v300h512v-300zm214.36 243.25-7.39-33.25h-45.94l-7.39 33.25-29.28-6.5 32.61-146.75h54.06l32.61 146.75zm104.64-3.25h-45v-150h45c41.36 0 75 33.64 75 75s-33.64 75-75 75zm135-150h-30v-30h30z" data-original="#000000" class="active-path" data-old_color="#000000" fill="#FFFFFF"/></g> </svg>
